<mxfile host="app.diagrams.net" agent="Mozilla/5.0 (Windows NT 10.0; Win64; x64) AppleWebKit/537.36 (KHTML, like Gecko) Chrome/133.0.0.0 Safari/537.36" version="26.0.14">
  <diagram id="C5RBs43oDa-KdzZeNtuy" name="Page-1">
    <mxGraphModel dx="2713" dy="796" grid="1" gridSize="10" guides="1" tooltips="1" connect="1" arrows="1" fold="1" page="1" pageScale="1" pageWidth="827" pageHeight="1169" math="0" shadow="0">
      <root>
        <mxCell id="WIyWlLk6GJQsqaUBKTNV-0" />
        <mxCell id="WIyWlLk6GJQsqaUBKTNV-1" parent="WIyWlLk6GJQsqaUBKTNV-0" />
        <mxCell id="tToA4wUiExiqptiXw_F4-0" value="&lt;div&gt;Poker&lt;/div&gt;&lt;div&gt;&lt;br&gt;&lt;/div&gt;&lt;div&gt;+ Deck playerDeck&lt;/div&gt;&lt;div&gt;+ ArrayList&amp;lt;Player&amp;gt; players&lt;/div&gt;&lt;div&gt;+ int playerNumber&lt;/div&gt;&lt;div&gt;+ int maxBet&lt;/div&gt;&lt;div&gt;+ int burnCards&lt;/div&gt;&lt;div&gt;+ ArrayList&amp;lt;Integer&amp;gt; bets&lt;br&gt;&lt;/div&gt;" style="rounded=0;whiteSpace=wrap;html=1;" parent="WIyWlLk6GJQsqaUBKTNV-1" vertex="1">
          <mxGeometry x="-10" y="450" width="210" height="130" as="geometry" />
        </mxCell>
        <mxCell id="tToA4wUiExiqptiXw_F4-1" value="&lt;div&gt;Blackjack&lt;/div&gt;&lt;div&gt;&lt;br&gt;&lt;/div&gt;&lt;div&gt;&lt;br&gt;&lt;/div&gt;&lt;div&gt;+ Player dealer&lt;/div&gt;&lt;div&gt;+ Player player&lt;/div&gt;&lt;div&gt;+ DeckFactory deck&lt;/div&gt;&lt;div&gt;+&amp;nbsp; hit()&lt;/div&gt;&lt;div&gt;+ stand()&lt;/div&gt;&lt;div&gt;+ int currentBet&lt;/div&gt;&lt;div&gt;+ doubleDown()&lt;/div&gt;&lt;div&gt;+ split()&lt;br&gt;&lt;/div&gt;" style="rounded=0;whiteSpace=wrap;html=1;" parent="WIyWlLk6GJQsqaUBKTNV-1" vertex="1">
          <mxGeometry x="210" y="450" width="230" height="190" as="geometry" />
        </mxCell>
        <mxCell id="tToA4wUiExiqptiXw_F4-2" value="&lt;div&gt;Roulette&lt;/div&gt;&lt;div&gt;&lt;br&gt;&lt;/div&gt;&lt;div&gt;+HashMap&amp;lt;Integer&amp;gt; rouletteVals&lt;/div&gt;&lt;div&gt;+HashMap&amp;lt;Integer, String&amp;gt; betLink&lt;/div&gt;&lt;div&gt;+ spin()&lt;/div&gt;&lt;div&gt;&lt;br&gt;&lt;/div&gt;" style="rounded=0;whiteSpace=wrap;html=1;" parent="WIyWlLk6GJQsqaUBKTNV-1" vertex="1">
          <mxGeometry x="600" y="450" width="190" height="225" as="geometry" />
        </mxCell>
        <mxCell id="tToA4wUiExiqptiXw_F4-3" value="&lt;div&gt;MainUI&lt;/div&gt;&lt;div&gt;&lt;br&gt;&lt;/div&gt;" style="rounded=0;whiteSpace=wrap;html=1;" parent="WIyWlLk6GJQsqaUBKTNV-1" vertex="1">
          <mxGeometry x="311" y="70" width="116" height="40" as="geometry" />
        </mxCell>
        <mxCell id="tToA4wUiExiqptiXw_F4-4" value="" style="endArrow=none;dashed=1;html=1;dashPattern=1 3;strokeWidth=2;rounded=0;" parent="WIyWlLk6GJQsqaUBKTNV-1" edge="1">
          <mxGeometry width="50" height="50" relative="1" as="geometry">
            <mxPoint x="460" y="750" as="sourcePoint" />
            <mxPoint x="694.5" y="750.5" as="targetPoint" />
          </mxGeometry>
        </mxCell>
        <mxCell id="V54zFg8hvjgudQwe-slX-5" style="edgeStyle=orthogonalEdgeStyle;rounded=0;orthogonalLoop=1;jettySize=auto;html=1;entryX=0.5;entryY=0;entryDx=0;entryDy=0;" edge="1" parent="WIyWlLk6GJQsqaUBKTNV-1" source="tToA4wUiExiqptiXw_F4-5" target="V54zFg8hvjgudQwe-slX-3">
          <mxGeometry relative="1" as="geometry" />
        </mxCell>
        <mxCell id="tToA4wUiExiqptiXw_F4-5" value="&lt;div&gt;Dice and Mines:&lt;/div&gt;&lt;div&gt;&lt;div&gt;class: Mines&lt;/div&gt;&lt;div&gt;functions:&lt;/div&gt;&lt;div&gt;-IsMine(int x, int y)&lt;/div&gt;&lt;div&gt;-OnCaseClicked(int x, int y);&lt;/div&gt;&lt;div&gt;-Cashout()&lt;/div&gt;&lt;div&gt;-ApplyGameProperties()&lt;/div&gt;&lt;div&gt;-SerializeGameProperties()&lt;/div&gt;&lt;/div&gt;" style="rounded=0;whiteSpace=wrap;html=1;" parent="WIyWlLk6GJQsqaUBKTNV-1" vertex="1">
          <mxGeometry x="660" y="690" width="150" height="140" as="geometry" />
        </mxCell>
        <mxCell id="tToA4wUiExiqptiXw_F4-6" value="&lt;font style=&quot;font-size: 15px;&quot;&gt;Possible module&lt;/font&gt;" style="text;strokeColor=none;fillColor=none;html=1;fontSize=24;fontStyle=1;verticalAlign=middle;align=center;" parent="WIyWlLk6GJQsqaUBKTNV-1" vertex="1">
          <mxGeometry x="537.5" y="710" width="100" height="40" as="geometry" />
        </mxCell>
        <mxCell id="tToA4wUiExiqptiXw_F4-28" style="edgeStyle=orthogonalEdgeStyle;rounded=0;orthogonalLoop=1;jettySize=auto;html=1;entryX=0.5;entryY=1;entryDx=0;entryDy=0;" parent="WIyWlLk6GJQsqaUBKTNV-1" source="tToA4wUiExiqptiXw_F4-10" target="tToA4wUiExiqptiXw_F4-11" edge="1">
          <mxGeometry relative="1" as="geometry" />
        </mxCell>
        <mxCell id="tToA4wUiExiqptiXw_F4-10" value="RNG Wrapper:&lt;div&gt;&lt;div&gt;Class : TrueRandom&lt;/div&gt;&lt;div&gt;functions:&lt;/div&gt;&lt;div&gt;-GenerateRandomBytes(int length)&lt;/div&gt;&lt;div&gt;-MapBytesToFloat(byte[] bytes)&lt;/div&gt;&lt;div&gt;-RandomRange(int min, int max)&amp;nbsp;&lt;/div&gt;&lt;/div&gt;&lt;div&gt;&lt;br&gt;&lt;/div&gt;" style="rounded=0;whiteSpace=wrap;html=1;" parent="WIyWlLk6GJQsqaUBKTNV-1" vertex="1">
          <mxGeometry x="80" y="900" width="160" height="240" as="geometry" />
        </mxCell>
        <mxCell id="tToA4wUiExiqptiXw_F4-13" style="edgeStyle=orthogonalEdgeStyle;rounded=0;orthogonalLoop=1;jettySize=auto;html=1;exitX=0;exitY=0.5;exitDx=0;exitDy=0;entryX=0.162;entryY=1.015;entryDx=0;entryDy=0;entryPerimeter=0;" parent="WIyWlLk6GJQsqaUBKTNV-1" source="tToA4wUiExiqptiXw_F4-11" target="tToA4wUiExiqptiXw_F4-0" edge="1">
          <mxGeometry relative="1" as="geometry">
            <mxPoint x="29" y="670" as="targetPoint" />
          </mxGeometry>
        </mxCell>
        <mxCell id="tToA4wUiExiqptiXw_F4-19" value="Implemented by" style="edgeLabel;html=1;align=center;verticalAlign=middle;resizable=0;points=[];" parent="tToA4wUiExiqptiXw_F4-13" vertex="1" connectable="0">
          <mxGeometry x="0.5908" y="-3" relative="1" as="geometry">
            <mxPoint as="offset" />
          </mxGeometry>
        </mxCell>
        <mxCell id="tToA4wUiExiqptiXw_F4-15" style="edgeStyle=orthogonalEdgeStyle;rounded=0;orthogonalLoop=1;jettySize=auto;html=1;" parent="WIyWlLk6GJQsqaUBKTNV-1" source="tToA4wUiExiqptiXw_F4-11" target="tToA4wUiExiqptiXw_F4-2" edge="1">
          <mxGeometry relative="1" as="geometry">
            <Array as="points">
              <mxPoint x="460" y="558" />
            </Array>
          </mxGeometry>
        </mxCell>
        <mxCell id="tToA4wUiExiqptiXw_F4-17" value="Implemented by" style="edgeLabel;html=1;align=center;verticalAlign=middle;resizable=0;points=[];" parent="tToA4wUiExiqptiXw_F4-15" vertex="1" connectable="0">
          <mxGeometry x="0.1857" relative="1" as="geometry">
            <mxPoint x="78" y="-29" as="offset" />
          </mxGeometry>
        </mxCell>
        <mxCell id="tToA4wUiExiqptiXw_F4-16" style="edgeStyle=orthogonalEdgeStyle;rounded=0;orthogonalLoop=1;jettySize=auto;html=1;entryX=0.5;entryY=1;entryDx=0;entryDy=0;" parent="WIyWlLk6GJQsqaUBKTNV-1" source="tToA4wUiExiqptiXw_F4-11" target="tToA4wUiExiqptiXw_F4-5" edge="1">
          <mxGeometry relative="1" as="geometry" />
        </mxCell>
        <mxCell id="tToA4wUiExiqptiXw_F4-20" value="Implemented by" style="edgeLabel;html=1;align=center;verticalAlign=middle;resizable=0;points=[];" parent="tToA4wUiExiqptiXw_F4-16" vertex="1" connectable="0">
          <mxGeometry x="0.5893" y="-2" relative="1" as="geometry">
            <mxPoint as="offset" />
          </mxGeometry>
        </mxCell>
        <mxCell id="jq3g5ppvfEtibvaRHfFG-3" style="edgeStyle=orthogonalEdgeStyle;rounded=0;orthogonalLoop=1;jettySize=auto;html=1;entryX=0.217;entryY=1;entryDx=0;entryDy=0;entryPerimeter=0;" parent="WIyWlLk6GJQsqaUBKTNV-1" source="tToA4wUiExiqptiXw_F4-11" edge="1" target="tToA4wUiExiqptiXw_F4-1">
          <mxGeometry relative="1" as="geometry">
            <mxPoint x="260" y="660" as="targetPoint" />
          </mxGeometry>
        </mxCell>
        <mxCell id="jq3g5ppvfEtibvaRHfFG-4" value="Implemented by" style="edgeLabel;html=1;align=center;verticalAlign=middle;resizable=0;points=[];" parent="jq3g5ppvfEtibvaRHfFG-3" vertex="1" connectable="0">
          <mxGeometry x="0.492" y="-4" relative="1" as="geometry">
            <mxPoint as="offset" />
          </mxGeometry>
        </mxCell>
        <mxCell id="tToA4wUiExiqptiXw_F4-11" value="&lt;div&gt;Calculator&lt;/div&gt;Interface" style="rounded=0;whiteSpace=wrap;html=1;" parent="WIyWlLk6GJQsqaUBKTNV-1" vertex="1">
          <mxGeometry x="349" y="800" width="130" height="70" as="geometry" />
        </mxCell>
        <mxCell id="tToA4wUiExiqptiXw_F4-29" style="edgeStyle=orthogonalEdgeStyle;rounded=0;orthogonalLoop=1;jettySize=auto;html=1;" parent="WIyWlLk6GJQsqaUBKTNV-1" source="tToA4wUiExiqptiXw_F4-22" target="tToA4wUiExiqptiXw_F4-11" edge="1">
          <mxGeometry relative="1" as="geometry">
            <Array as="points">
              <mxPoint x="414" y="840" />
              <mxPoint x="414" y="840" />
            </Array>
          </mxGeometry>
        </mxCell>
        <mxCell id="tToA4wUiExiqptiXw_F4-22" value="Advantage calculator:&lt;br&gt;&lt;div&gt;&lt;br&gt;&lt;/div&gt;&lt;div&gt;+Double getHouseAdvantage()&lt;/div&gt;&lt;div&gt;&lt;br&gt;&lt;/div&gt;" style="rounded=0;whiteSpace=wrap;html=1;" parent="WIyWlLk6GJQsqaUBKTNV-1" vertex="1">
          <mxGeometry x="290.5" y="959" width="247" height="210" as="geometry" />
        </mxCell>
        <mxCell id="jq3g5ppvfEtibvaRHfFG-1" style="edgeStyle=orthogonalEdgeStyle;rounded=0;orthogonalLoop=1;jettySize=auto;html=1;entryX=0.5;entryY=1;entryDx=0;entryDy=0;" parent="WIyWlLk6GJQsqaUBKTNV-1" source="tToA4wUiExiqptiXw_F4-23" target="tToA4wUiExiqptiXw_F4-11" edge="1">
          <mxGeometry relative="1" as="geometry" />
        </mxCell>
        <mxCell id="tToA4wUiExiqptiXw_F4-23" value="Statistics functionality" style="rounded=0;whiteSpace=wrap;html=1;" parent="WIyWlLk6GJQsqaUBKTNV-1" vertex="1">
          <mxGeometry x="560" y="900" width="119" height="50" as="geometry" />
        </mxCell>
        <mxCell id="tToA4wUiExiqptiXw_F4-41" value="" style="whiteSpace=wrap;html=1;aspect=fixed;" parent="WIyWlLk6GJQsqaUBKTNV-1" vertex="1">
          <mxGeometry x="145" y="70" width="140" height="140" as="geometry" />
        </mxCell>
        <mxCell id="tToA4wUiExiqptiXw_F4-32" value="PokerController" style="rounded=1;whiteSpace=wrap;html=1;" parent="WIyWlLk6GJQsqaUBKTNV-1" vertex="1">
          <mxGeometry x="165" y="120" width="100" height="30" as="geometry" />
        </mxCell>
        <mxCell id="tToA4wUiExiqptiXw_F4-33" value="BlackJackController" style="rounded=1;whiteSpace=wrap;html=1;" parent="WIyWlLk6GJQsqaUBKTNV-1" vertex="1">
          <mxGeometry x="160" y="160" width="110" height="30" as="geometry" />
        </mxCell>
        <mxCell id="tToA4wUiExiqptiXw_F4-34" value="RouletteController" style="rounded=1;whiteSpace=wrap;html=1;" parent="WIyWlLk6GJQsqaUBKTNV-1" vertex="1">
          <mxGeometry x="170" y="90" width="100" height="20" as="geometry" />
        </mxCell>
        <mxCell id="tToA4wUiExiqptiXw_F4-42" value="Controller Package" style="text;html=1;align=center;verticalAlign=middle;resizable=0;points=[];autosize=1;strokeColor=none;fillColor=none;" parent="WIyWlLk6GJQsqaUBKTNV-1" vertex="1">
          <mxGeometry x="150" y="30" width="130" height="30" as="geometry" />
        </mxCell>
        <mxCell id="tToA4wUiExiqptiXw_F4-43" value="UI Package" style="text;html=1;align=center;verticalAlign=middle;resizable=0;points=[];autosize=1;strokeColor=none;fillColor=none;" parent="WIyWlLk6GJQsqaUBKTNV-1" vertex="1">
          <mxGeometry x="324" y="30" width="90" height="30" as="geometry" />
        </mxCell>
        <mxCell id="tToA4wUiExiqptiXw_F4-44" value="&lt;div&gt;StatsUI&lt;/div&gt;&lt;div&gt;&lt;br&gt;&lt;/div&gt;" style="rounded=0;whiteSpace=wrap;html=1;" parent="WIyWlLk6GJQsqaUBKTNV-1" vertex="1">
          <mxGeometry x="311" y="120" width="116" height="40" as="geometry" />
        </mxCell>
        <mxCell id="tToA4wUiExiqptiXw_F4-50" style="edgeStyle=orthogonalEdgeStyle;rounded=0;orthogonalLoop=1;jettySize=auto;html=1;" parent="WIyWlLk6GJQsqaUBKTNV-1" source="tToA4wUiExiqptiXw_F4-45" target="tToA4wUiExiqptiXw_F4-48" edge="1">
          <mxGeometry relative="1" as="geometry" />
        </mxCell>
        <mxCell id="tToA4wUiExiqptiXw_F4-51" value="Uses" style="edgeLabel;html=1;align=center;verticalAlign=middle;resizable=0;points=[];" parent="tToA4wUiExiqptiXw_F4-50" vertex="1" connectable="0">
          <mxGeometry y="1" relative="1" as="geometry">
            <mxPoint as="offset" />
          </mxGeometry>
        </mxCell>
        <mxCell id="tToA4wUiExiqptiXw_F4-45" value="Driver/Test Package" style="rounded=0;whiteSpace=wrap;html=1;" parent="WIyWlLk6GJQsqaUBKTNV-1" vertex="1">
          <mxGeometry x="345" y="240" width="120" height="60" as="geometry" />
        </mxCell>
        <mxCell id="tToA4wUiExiqptiXw_F4-46" value="Driver" style="rounded=1;whiteSpace=wrap;html=1;" parent="WIyWlLk6GJQsqaUBKTNV-1" vertex="1">
          <mxGeometry x="474" y="230" width="100" height="30" as="geometry" />
        </mxCell>
        <mxCell id="tToA4wUiExiqptiXw_F4-47" value="Test" style="rounded=1;whiteSpace=wrap;html=1;" parent="WIyWlLk6GJQsqaUBKTNV-1" vertex="1">
          <mxGeometry x="474" y="270" width="100" height="30" as="geometry" />
        </mxCell>
        <mxCell id="tToA4wUiExiqptiXw_F4-52" style="edgeStyle=orthogonalEdgeStyle;rounded=0;orthogonalLoop=1;jettySize=auto;html=1;entryX=0.5;entryY=0;entryDx=0;entryDy=0;" parent="WIyWlLk6GJQsqaUBKTNV-1" source="tToA4wUiExiqptiXw_F4-48" target="tToA4wUiExiqptiXw_F4-0" edge="1">
          <mxGeometry relative="1" as="geometry" />
        </mxCell>
        <mxCell id="tToA4wUiExiqptiXw_F4-56" value="Contains" style="edgeLabel;html=1;align=center;verticalAlign=middle;resizable=0;points=[];" parent="tToA4wUiExiqptiXw_F4-52" vertex="1" connectable="0">
          <mxGeometry x="-0.5877" y="-4" relative="1" as="geometry">
            <mxPoint as="offset" />
          </mxGeometry>
        </mxCell>
        <mxCell id="tToA4wUiExiqptiXw_F4-54" style="edgeStyle=orthogonalEdgeStyle;rounded=0;orthogonalLoop=1;jettySize=auto;html=1;" parent="WIyWlLk6GJQsqaUBKTNV-1" source="tToA4wUiExiqptiXw_F4-48" target="tToA4wUiExiqptiXw_F4-1" edge="1">
          <mxGeometry relative="1" as="geometry">
            <Array as="points">
              <mxPoint x="405" y="420" />
              <mxPoint x="239" y="420" />
            </Array>
          </mxGeometry>
        </mxCell>
        <mxCell id="tToA4wUiExiqptiXw_F4-59" style="edgeStyle=orthogonalEdgeStyle;rounded=0;orthogonalLoop=1;jettySize=auto;html=1;" parent="WIyWlLk6GJQsqaUBKTNV-1" source="tToA4wUiExiqptiXw_F4-48" target="tToA4wUiExiqptiXw_F4-58" edge="1">
          <mxGeometry relative="1" as="geometry" />
        </mxCell>
        <mxCell id="tToA4wUiExiqptiXw_F4-60" value="Uses" style="edgeLabel;html=1;align=center;verticalAlign=middle;resizable=0;points=[];" parent="tToA4wUiExiqptiXw_F4-59" vertex="1" connectable="0">
          <mxGeometry x="-0.1902" y="-4" relative="1" as="geometry">
            <mxPoint x="11" y="-14" as="offset" />
          </mxGeometry>
        </mxCell>
        <mxCell id="tToA4wUiExiqptiXw_F4-48" value="Games Package" style="rounded=0;whiteSpace=wrap;html=1;" parent="WIyWlLk6GJQsqaUBKTNV-1" vertex="1">
          <mxGeometry x="345" y="350" width="120" height="60" as="geometry" />
        </mxCell>
        <mxCell id="tToA4wUiExiqptiXw_F4-58" value="JCards Library" style="rounded=0;whiteSpace=wrap;html=1;" parent="WIyWlLk6GJQsqaUBKTNV-1" vertex="1">
          <mxGeometry x="670" y="350" width="120" height="60" as="geometry" />
        </mxCell>
        <mxCell id="jq3g5ppvfEtibvaRHfFG-5" style="edgeStyle=orthogonalEdgeStyle;rounded=0;orthogonalLoop=1;jettySize=auto;html=1;entryX=0;entryY=0.364;entryDx=0;entryDy=0;entryPerimeter=0;" parent="WIyWlLk6GJQsqaUBKTNV-1" target="tToA4wUiExiqptiXw_F4-2" edge="1">
          <mxGeometry relative="1" as="geometry">
            <mxPoint x="402.5" y="410" as="sourcePoint" />
            <mxPoint x="537.5" y="549.925" as="targetPoint" />
          </mxGeometry>
        </mxCell>
        <mxCell id="jq3g5ppvfEtibvaRHfFG-6" value="Contains" style="edgeLabel;html=1;align=center;verticalAlign=middle;resizable=0;points=[];" parent="jq3g5ppvfEtibvaRHfFG-5" vertex="1" connectable="0">
          <mxGeometry x="-0.0073" y="1" relative="1" as="geometry">
            <mxPoint x="21" as="offset" />
          </mxGeometry>
        </mxCell>
        <mxCell id="jq3g5ppvfEtibvaRHfFG-7" value="Contains" style="text;html=1;align=center;verticalAlign=middle;resizable=0;points=[];autosize=1;strokeColor=none;fillColor=none;" parent="WIyWlLk6GJQsqaUBKTNV-1" vertex="1">
          <mxGeometry x="285" y="398" width="70" height="30" as="geometry" />
        </mxCell>
        <mxCell id="V54zFg8hvjgudQwe-slX-2" value="&lt;div&gt;GameUI (multiple)&lt;/div&gt;" style="rounded=0;whiteSpace=wrap;html=1;" vertex="1" parent="WIyWlLk6GJQsqaUBKTNV-1">
          <mxGeometry x="310" y="170" width="116" height="40" as="geometry" />
        </mxCell>
        <mxCell id="V54zFg8hvjgudQwe-slX-3" value="&lt;div&gt;class: Dice&lt;/div&gt;&lt;div&gt;functions:&lt;/div&gt;&lt;div&gt;-SelectTarget(int value);&lt;/div&gt;&lt;div&gt;-SelectUnderOrOver(bool isUnder);&lt;/div&gt;&lt;div&gt;-ApplyGameProperties()&lt;/div&gt;&lt;div&gt;-SerializeGameProperties()&lt;/div&gt;&lt;div&gt;-Bet()&lt;/div&gt;" style="rounded=0;whiteSpace=wrap;html=1;" vertex="1" parent="WIyWlLk6GJQsqaUBKTNV-1">
          <mxGeometry x="660" y="970" width="150" height="140" as="geometry" />
        </mxCell>
        <mxCell id="V54zFg8hvjgudQwe-slX-6" value="etc." style="rounded=1;whiteSpace=wrap;html=1;" vertex="1" parent="WIyWlLk6GJQsqaUBKTNV-1">
          <mxGeometry x="160" y="220" width="110" height="30" as="geometry" />
        </mxCell>
      </root>
    </mxGraphModel>
  </diagram>
</mxfile>
